# xmcd
#
# Track frame offsets:
#	150
#	22726
#	43449
#	58224
#	84587
#	103868
#	130553
#	148515
#	168940
#	188703
#
# Disc length: 2875 seconds
#
# Revision: 18
# Processed by: cddbd v1.5.2PL0 Copyright (c) Steve Scherf et al.
# Submitted via: Jack! The Knife 20 Magnifico
#
DISCID=830b390a
DTITLE=Black Sabbath - Cross Purposes
DYEAR=1994
DGENRE=Metal
TTITLE0=I Witness
TTITLE1=Cross Of Thorns
TTITLE2=Psychophobia
TTITLE3=Virtual Death
TTITLE4=Immaculate Deception
TTITLE5=Dying For Love
TTITLE6=Back To Eden
TTITLE7=The Hand That Rocks The Cradle
TTITLE8=Cardinal Sin
TTITLE9=Evil Eye
EXTD=Leif Mases and Black Sabbath
EXTT0=Butler, Iommi, Martin
EXTT1=Butler, Iommi, Martin
EXTT2=Butler, Iommi, Martin
EXTT3=Butler, Iommi, Martin
EXTT4=Butler, Iommi, Martin
EXTT5=Butler, Iommi, Martin
EXTT6=Butler, Iommi, Martin
EXTT7=Butler, Iommi, Martin
EXTT8=Butler, Iommi, Martin
EXTT9=Butler, Iommi, Martin, E. Van Halen
PLAYORDER=
